<mxfile host="app.diagrams.net" modified="2020-09-19T20:39:22.980Z" agent="5.0 (Macintosh; Intel Mac OS X 10_15_6) AppleWebKit/605.1.15 (KHTML, like Gecko) Version/13.1.2 Safari/605.1.15" etag="I3dkP9Ch3PLyogjrODka" version="13.7.3" type="github">
  <diagram id="9iZNZO0j0jkgSTigeUpT" name="Page-1">
    <mxGraphModel dx="2037" dy="1170" grid="1" gridSize="10" guides="1" tooltips="1" connect="1" arrows="1" fold="1" page="1" pageScale="1" pageWidth="1400" pageHeight="850" math="0" shadow="0" extFonts="Permanent Marker^https://fonts.googleapis.com/css?family=Permanent+Marker">
      <root>
        <mxCell id="0" />
        <mxCell id="1" parent="0" />
        <mxCell id="PUG3nTG2jhj8GArSebX7-1" value="AIRPORT" style="rounded=0;whiteSpace=wrap;html=1;perimeterSpacing=0;sketch=0;container=0;fontSize=18;" parent="1" vertex="1">
          <mxGeometry x="300" y="330" width="160" height="80" as="geometry" />
        </mxCell>
        <mxCell id="PUG3nTG2jhj8GArSebX7-6" value="FLIGHT_LEG" style="shape=ext;double=1;rounded=0;whiteSpace=wrap;html=1;glass=0;sketch=0;gradientColor=none;margin=10;fontSize=18;" parent="1" vertex="1">
          <mxGeometry x="1060" y="280" width="160" height="80" as="geometry" />
        </mxCell>
        <mxCell id="PUG3nTG2jhj8GArSebX7-7" value="AIRLINE_TYPE" style="rounded=0;whiteSpace=wrap;html=1;perimeterSpacing=0;sketch=0;container=0;fontSize=18;" parent="1" vertex="1">
          <mxGeometry x="300" y="590" width="160" height="80" as="geometry" />
        </mxCell>
        <mxCell id="PUG3nTG2jhj8GArSebX7-8" value="AIRPLANE" style="rounded=0;whiteSpace=wrap;html=1;perimeterSpacing=0;sketch=0;container=0;fontSize=18;" parent="1" vertex="1">
          <mxGeometry x="300" y="950" width="160" height="80" as="geometry" />
        </mxCell>
        <mxCell id="PUG3nTG2jhj8GArSebX7-9" value="FLIGHT" style="rounded=0;whiteSpace=wrap;html=1;perimeterSpacing=0;sketch=0;container=0;fontSize=18;" parent="1" vertex="1">
          <mxGeometry x="1060" y="580" width="160" height="80" as="geometry" />
        </mxCell>
        <mxCell id="PUG3nTG2jhj8GArSebX7-10" value="SEAT" style="shape=ext;double=1;rounded=0;whiteSpace=wrap;html=1;glass=0;sketch=0;gradientColor=none;margin=10;fontSize=18;" parent="1" vertex="1">
          <mxGeometry x="300" y="1180" width="160" height="80" as="geometry" />
        </mxCell>
        <mxCell id="PUG3nTG2jhj8GArSebX7-11" value="FARE" style="shape=ext;double=1;rounded=0;whiteSpace=wrap;html=1;glass=0;sketch=0;gradientColor=none;margin=10;fontSize=18;" parent="1" vertex="1">
          <mxGeometry x="1060" y="860" width="160" height="80" as="geometry" />
        </mxCell>
        <mxCell id="PUG3nTG2jhj8GArSebX7-12" value="LEG_INSTANCE" style="shape=ext;double=1;rounded=0;whiteSpace=wrap;html=1;glass=0;sketch=0;gradientColor=none;margin=10;fontSize=18;" parent="1" vertex="1">
          <mxGeometry x="740" y="950" width="180" height="80" as="geometry" />
        </mxCell>
        <mxCell id="PUG3nTG2jhj8GArSebX7-13" value="&lt;u style=&quot;font-size: 18px;&quot;&gt;AIRPORT CODE&lt;/u&gt;" style="ellipse;whiteSpace=wrap;html=1;rounded=0;glass=0;sketch=0;gradientColor=none;fontSize=18;" parent="1" vertex="1">
          <mxGeometry x="210" y="175" width="120" height="50" as="geometry" />
        </mxCell>
        <mxCell id="PUG3nTG2jhj8GArSebX7-14" value="City" style="ellipse;whiteSpace=wrap;html=1;rounded=0;glass=0;sketch=0;gradientColor=none;fontSize=18;" parent="1" vertex="1">
          <mxGeometry x="340" y="180" width="100" height="40" as="geometry" />
        </mxCell>
        <mxCell id="PUG3nTG2jhj8GArSebX7-15" value="State" style="ellipse;whiteSpace=wrap;html=1;rounded=0;glass=0;sketch=0;gradientColor=none;fontSize=18;" parent="1" vertex="1">
          <mxGeometry x="450" y="180" width="100" height="40" as="geometry" />
        </mxCell>
        <mxCell id="PUG3nTG2jhj8GArSebX7-18" value="Name" style="ellipse;whiteSpace=wrap;html=1;rounded=0;glass=0;sketch=0;gradientColor=none;fontSize=18;" parent="1" vertex="1">
          <mxGeometry x="560" y="180" width="90" height="40" as="geometry" />
        </mxCell>
        <mxCell id="PUG3nTG2jhj8GArSebX7-23" value="" style="endArrow=none;html=1;exitX=0.5;exitY=0;exitDx=0;exitDy=0;entryX=0.5;entryY=1;entryDx=0;entryDy=0;fontSize=18;" parent="1" source="PUG3nTG2jhj8GArSebX7-1" target="PUG3nTG2jhj8GArSebX7-13" edge="1">
          <mxGeometry width="50" height="50" relative="1" as="geometry">
            <mxPoint x="660" y="760" as="sourcePoint" />
            <mxPoint x="710" y="710" as="targetPoint" />
          </mxGeometry>
        </mxCell>
        <mxCell id="PUG3nTG2jhj8GArSebX7-24" value="" style="endArrow=none;html=1;entryX=0.5;entryY=1;entryDx=0;entryDy=0;fontSize=18;exitX=0.5;exitY=0;exitDx=0;exitDy=0;" parent="1" source="PUG3nTG2jhj8GArSebX7-1" target="PUG3nTG2jhj8GArSebX7-14" edge="1">
          <mxGeometry width="50" height="50" relative="1" as="geometry">
            <mxPoint x="380" y="280" as="sourcePoint" />
            <mxPoint x="290" y="230" as="targetPoint" />
          </mxGeometry>
        </mxCell>
        <mxCell id="PUG3nTG2jhj8GArSebX7-25" value="" style="endArrow=none;html=1;entryX=0.5;entryY=1;entryDx=0;entryDy=0;fontSize=18;exitX=0.5;exitY=0;exitDx=0;exitDy=0;" parent="1" source="PUG3nTG2jhj8GArSebX7-1" target="PUG3nTG2jhj8GArSebX7-15" edge="1">
          <mxGeometry width="50" height="50" relative="1" as="geometry">
            <mxPoint x="380" y="280" as="sourcePoint" />
            <mxPoint x="300" y="240" as="targetPoint" />
          </mxGeometry>
        </mxCell>
        <mxCell id="PUG3nTG2jhj8GArSebX7-26" value="" style="endArrow=none;html=1;exitX=0.5;exitY=0;exitDx=0;exitDy=0;entryX=0.5;entryY=1;entryDx=0;entryDy=0;fontSize=18;" parent="1" source="PUG3nTG2jhj8GArSebX7-1" target="PUG3nTG2jhj8GArSebX7-18" edge="1">
          <mxGeometry width="50" height="50" relative="1" as="geometry">
            <mxPoint x="410" y="310" as="sourcePoint" />
            <mxPoint x="310" y="250" as="targetPoint" />
          </mxGeometry>
        </mxCell>
        <mxCell id="PUG3nTG2jhj8GArSebX7-27" value="&lt;u style=&quot;font-size: 18px;&quot;&gt;Type_name&lt;/u&gt;" style="ellipse;whiteSpace=wrap;html=1;rounded=0;glass=0;sketch=0;gradientColor=none;fontSize=18;" parent="1" vertex="1">
          <mxGeometry x="220" y="510" width="100" height="40" as="geometry" />
        </mxCell>
        <mxCell id="PUG3nTG2jhj8GArSebX7-28" value="Max_seats" style="ellipse;whiteSpace=wrap;html=1;rounded=0;glass=0;sketch=0;gradientColor=none;fontSize=18;" parent="1" vertex="1">
          <mxGeometry x="410" y="525" width="100" height="40" as="geometry" />
        </mxCell>
        <mxCell id="PUG3nTG2jhj8GArSebX7-29" value="Company" style="ellipse;whiteSpace=wrap;html=1;rounded=0;glass=0;sketch=0;gradientColor=none;fontSize=18;" parent="1" vertex="1">
          <mxGeometry x="230" y="680" width="100" height="40" as="geometry" />
        </mxCell>
        <mxCell id="PUG3nTG2jhj8GArSebX7-31" value="" style="endArrow=none;html=1;exitX=0;exitY=0.5;exitDx=0;exitDy=0;entryX=0.5;entryY=0;entryDx=0;entryDy=0;fontSize=18;" parent="1" source="PUG3nTG2jhj8GArSebX7-7" target="PUG3nTG2jhj8GArSebX7-29" edge="1">
          <mxGeometry width="50" height="50" relative="1" as="geometry">
            <mxPoint x="400" y="590" as="sourcePoint" />
            <mxPoint x="300" y="530" as="targetPoint" />
          </mxGeometry>
        </mxCell>
        <mxCell id="PUG3nTG2jhj8GArSebX7-32" value="" style="endArrow=none;html=1;entryX=0.5;entryY=1;entryDx=0;entryDy=0;exitX=0.5;exitY=0;exitDx=0;exitDy=0;fontSize=18;" parent="1" source="PUG3nTG2jhj8GArSebX7-7" target="PUG3nTG2jhj8GArSebX7-27" edge="1">
          <mxGeometry width="50" height="50" relative="1" as="geometry">
            <mxPoint x="320" y="650" as="sourcePoint" />
            <mxPoint x="290" y="590" as="targetPoint" />
          </mxGeometry>
        </mxCell>
        <mxCell id="PUG3nTG2jhj8GArSebX7-33" value="" style="endArrow=none;html=1;fontSize=18;entryX=0.5;entryY=1;entryDx=0;entryDy=0;" parent="1" target="PUG3nTG2jhj8GArSebX7-28" edge="1">
          <mxGeometry width="50" height="50" relative="1" as="geometry">
            <mxPoint x="380" y="590" as="sourcePoint" />
            <mxPoint x="330" y="540" as="targetPoint" />
          </mxGeometry>
        </mxCell>
        <mxCell id="PUG3nTG2jhj8GArSebX7-34" value="&lt;u style=&quot;font-size: 18px;&quot;&gt;Airplane_id&lt;/u&gt;" style="ellipse;whiteSpace=wrap;html=1;rounded=0;glass=0;sketch=0;gradientColor=none;fontSize=18;" parent="1" vertex="1">
          <mxGeometry x="230" y="890" width="100" height="40" as="geometry" />
        </mxCell>
        <mxCell id="PUG3nTG2jhj8GArSebX7-35" value="Total_no_of_seats" style="ellipse;whiteSpace=wrap;html=1;rounded=0;glass=0;sketch=0;gradientColor=none;fontSize=18;" parent="1" vertex="1">
          <mxGeometry x="410" y="890" width="170" height="40" as="geometry" />
        </mxCell>
        <mxCell id="PUG3nTG2jhj8GArSebX7-36" value="" style="endArrow=none;html=1;exitX=0.5;exitY=0;exitDx=0;exitDy=0;entryX=0.5;entryY=1;entryDx=0;entryDy=0;fontSize=18;" parent="1" source="PUG3nTG2jhj8GArSebX7-8" target="PUG3nTG2jhj8GArSebX7-34" edge="1">
          <mxGeometry width="50" height="50" relative="1" as="geometry">
            <mxPoint x="310" y="640" as="sourcePoint" />
            <mxPoint x="290" y="690" as="targetPoint" />
          </mxGeometry>
        </mxCell>
        <mxCell id="PUG3nTG2jhj8GArSebX7-37" value="" style="endArrow=none;html=1;exitX=0.5;exitY=1;exitDx=0;exitDy=0;entryX=0.5;entryY=0;entryDx=0;entryDy=0;fontSize=18;" parent="1" source="PUG3nTG2jhj8GArSebX7-35" target="PUG3nTG2jhj8GArSebX7-8" edge="1">
          <mxGeometry width="50" height="50" relative="1" as="geometry">
            <mxPoint x="320" y="650" as="sourcePoint" />
            <mxPoint x="300" y="700" as="targetPoint" />
          </mxGeometry>
        </mxCell>
        <mxCell id="PUG3nTG2jhj8GArSebX7-38" value="&lt;u style=&quot;font-size: 18px;&quot;&gt;Airplane_id&lt;/u&gt;" style="ellipse;whiteSpace=wrap;html=1;rounded=0;glass=0;sketch=0;gradientColor=none;fontSize=18;" parent="1" vertex="1">
          <mxGeometry x="330" y="1110" width="120" height="40" as="geometry" />
        </mxCell>
        <mxCell id="PUG3nTG2jhj8GArSebX7-39" value="" style="endArrow=none;html=1;exitX=0.5;exitY=0;exitDx=0;exitDy=0;entryX=0.5;entryY=1;entryDx=0;entryDy=0;fontSize=18;" parent="1" source="PUG3nTG2jhj8GArSebX7-10" target="PUG3nTG2jhj8GArSebX7-38" edge="1">
          <mxGeometry width="50" height="50" relative="1" as="geometry">
            <mxPoint x="390" y="960.0000000000002" as="sourcePoint" />
            <mxPoint x="290" y="940.0000000000002" as="targetPoint" />
          </mxGeometry>
        </mxCell>
        <mxCell id="PUG3nTG2jhj8GArSebX7-40" value="&lt;u style=&quot;font-size: 18px;&quot;&gt;Leg_no&lt;/u&gt;" style="ellipse;whiteSpace=wrap;html=1;rounded=0;glass=0;sketch=0;gradientColor=none;fontSize=18;" parent="1" vertex="1">
          <mxGeometry x="1090" y="190" width="100" height="40" as="geometry" />
        </mxCell>
        <mxCell id="PUG3nTG2jhj8GArSebX7-41" value="" style="endArrow=none;html=1;entryX=0.5;entryY=1;entryDx=0;entryDy=0;exitX=0.5;exitY=0;exitDx=0;exitDy=0;fontSize=18;" parent="1" source="PUG3nTG2jhj8GArSebX7-6" target="PUG3nTG2jhj8GArSebX7-40" edge="1">
          <mxGeometry width="50" height="50" relative="1" as="geometry">
            <mxPoint x="390" y="290" as="sourcePoint" />
            <mxPoint x="400" y="230" as="targetPoint" />
          </mxGeometry>
        </mxCell>
        <mxCell id="PUG3nTG2jhj8GArSebX7-42" value="&lt;u style=&quot;font-size: 18px;&quot;&gt;&lt;font style=&quot;font-size: 18px;&quot;&gt;Number&lt;/font&gt;&lt;/u&gt;" style="ellipse;whiteSpace=wrap;html=1;rounded=0;glass=0;sketch=0;gradientColor=none;fontSize=18;" parent="1" vertex="1">
          <mxGeometry x="947" y="530" width="100" height="40" as="geometry" />
        </mxCell>
        <mxCell id="PUG3nTG2jhj8GArSebX7-43" value="Airline" style="ellipse;whiteSpace=wrap;html=1;rounded=0;glass=0;sketch=0;gradientColor=none;fontSize=18;" parent="1" vertex="1">
          <mxGeometry x="940" y="650" width="100" height="40" as="geometry" />
        </mxCell>
        <mxCell id="PUG3nTG2jhj8GArSebX7-44" value="Weekdays" style="ellipse;whiteSpace=wrap;html=1;rounded=0;glass=0;sketch=0;gradientColor=none;fontSize=18;" parent="1" vertex="1">
          <mxGeometry x="950" y="705" width="100" height="40" as="geometry" />
        </mxCell>
        <mxCell id="PUG3nTG2jhj8GArSebX7-47" value="&lt;u style=&quot;font-size: 18px;&quot;&gt;Code&lt;/u&gt;" style="ellipse;whiteSpace=wrap;html=1;rounded=0;glass=0;sketch=0;gradientColor=none;fontSize=18;" parent="1" vertex="1">
          <mxGeometry x="930" y="920" width="100" height="40" as="geometry" />
        </mxCell>
        <mxCell id="PUG3nTG2jhj8GArSebX7-48" value="Restrictions" style="ellipse;whiteSpace=wrap;html=1;rounded=0;glass=0;sketch=0;gradientColor=none;fontSize=18;" parent="1" vertex="1">
          <mxGeometry x="890" y="760" width="120" height="40" as="geometry" />
        </mxCell>
        <mxCell id="PUG3nTG2jhj8GArSebX7-49" value="Amount" style="ellipse;whiteSpace=wrap;html=1;rounded=0;glass=0;sketch=0;gradientColor=none;fontSize=18;" parent="1" vertex="1">
          <mxGeometry x="900" y="820" width="100" height="40" as="geometry" />
        </mxCell>
        <mxCell id="PUG3nTG2jhj8GArSebX7-50" value="" style="endArrow=none;html=1;entryX=1;entryY=1;entryDx=0;entryDy=0;exitX=0;exitY=0.5;exitDx=0;exitDy=0;fontSize=18;" parent="1" source="PUG3nTG2jhj8GArSebX7-9" target="PUG3nTG2jhj8GArSebX7-42" edge="1">
          <mxGeometry width="50" height="50" relative="1" as="geometry">
            <mxPoint x="1149.9999999999995" y="280" as="sourcePoint" />
            <mxPoint x="1149.9999999999995" y="240" as="targetPoint" />
          </mxGeometry>
        </mxCell>
        <mxCell id="PUG3nTG2jhj8GArSebX7-51" value="" style="endArrow=none;html=1;entryX=1;entryY=0;entryDx=0;entryDy=0;fontSize=18;" parent="1" target="PUG3nTG2jhj8GArSebX7-43" edge="1">
          <mxGeometry width="50" height="50" relative="1" as="geometry">
            <mxPoint x="1060" y="620" as="sourcePoint" />
            <mxPoint x="1042.3553390593274" y="584.1421356237308" as="targetPoint" />
          </mxGeometry>
        </mxCell>
        <mxCell id="PUG3nTG2jhj8GArSebX7-52" value="" style="endArrow=none;html=1;entryX=1;entryY=0;entryDx=0;entryDy=0;fontSize=18;" parent="1" target="PUG3nTG2jhj8GArSebX7-44" edge="1">
          <mxGeometry width="50" height="50" relative="1" as="geometry">
            <mxPoint x="1060" y="620" as="sourcePoint" />
            <mxPoint x="1042.3553390593274" y="584.1421356237308" as="targetPoint" />
          </mxGeometry>
        </mxCell>
        <mxCell id="PUG3nTG2jhj8GArSebX7-53" value="Amount" style="ellipse;whiteSpace=wrap;html=1;rounded=0;glass=0;sketch=0;gradientColor=none;fontSize=18;" parent="1" vertex="1">
          <mxGeometry x="840" y="880" width="100" height="40" as="geometry" />
        </mxCell>
        <mxCell id="PUG3nTG2jhj8GArSebX7-54" value="&lt;u style=&quot;font-size: 18px;&quot;&gt;Date&lt;/u&gt;" style="ellipse;whiteSpace=wrap;html=1;rounded=0;glass=0;sketch=0;gradientColor=none;fontSize=18;" parent="1" vertex="1">
          <mxGeometry x="950" y="970" width="100" height="40" as="geometry" />
        </mxCell>
        <mxCell id="PUG3nTG2jhj8GArSebX7-55" value="" style="endArrow=none;html=1;entryX=1;entryY=1;entryDx=0;entryDy=0;fontSize=18;exitX=0;exitY=0.5;exitDx=0;exitDy=0;" parent="1" source="PUG3nTG2jhj8GArSebX7-11" target="PUG3nTG2jhj8GArSebX7-48" edge="1">
          <mxGeometry width="50" height="50" relative="1" as="geometry">
            <mxPoint x="1070" y="630" as="sourcePoint" />
            <mxPoint x="1042.3553390593274" y="675.8578643762694" as="targetPoint" />
          </mxGeometry>
        </mxCell>
        <mxCell id="PUG3nTG2jhj8GArSebX7-56" value="" style="endArrow=none;html=1;entryX=1;entryY=1;entryDx=0;entryDy=0;fontSize=18;exitX=0;exitY=0.5;exitDx=0;exitDy=0;" parent="1" source="PUG3nTG2jhj8GArSebX7-11" target="PUG3nTG2jhj8GArSebX7-49" edge="1">
          <mxGeometry width="50" height="50" relative="1" as="geometry">
            <mxPoint x="1070" y="900" as="sourcePoint" />
            <mxPoint x="1060" y="790" as="targetPoint" />
          </mxGeometry>
        </mxCell>
        <mxCell id="PUG3nTG2jhj8GArSebX7-57" value="" style="endArrow=none;html=1;fontSize=18;exitX=0;exitY=0.5;exitDx=0;exitDy=0;" parent="1" source="PUG3nTG2jhj8GArSebX7-11" target="PUG3nTG2jhj8GArSebX7-47" edge="1">
          <mxGeometry width="50" height="50" relative="1" as="geometry">
            <mxPoint x="1070" y="900" as="sourcePoint" />
            <mxPoint x="1050" y="900" as="targetPoint" />
          </mxGeometry>
        </mxCell>
        <mxCell id="PUG3nTG2jhj8GArSebX7-58" value="" style="endArrow=none;html=1;entryX=0;entryY=0.5;entryDx=0;entryDy=0;fontSize=18;exitX=1;exitY=0.5;exitDx=0;exitDy=0;" parent="1" source="PUG3nTG2jhj8GArSebX7-12" target="PUG3nTG2jhj8GArSebX7-54" edge="1">
          <mxGeometry width="50" height="50" relative="1" as="geometry">
            <mxPoint x="1100" y="930.0000000000002" as="sourcePoint" />
            <mxPoint x="1080" y="810" as="targetPoint" />
          </mxGeometry>
        </mxCell>
        <mxCell id="PUG3nTG2jhj8GArSebX7-59" value="" style="endArrow=none;html=1;entryX=0.5;entryY=0;entryDx=0;entryDy=0;fontSize=18;exitX=0.5;exitY=1;exitDx=0;exitDy=0;" parent="1" source="PUG3nTG2jhj8GArSebX7-53" target="PUG3nTG2jhj8GArSebX7-12" edge="1">
          <mxGeometry width="50" height="50" relative="1" as="geometry">
            <mxPoint x="920" y="1000.0000000000002" as="sourcePoint" />
            <mxPoint x="960" y="1000.0000000000002" as="targetPoint" />
          </mxGeometry>
        </mxCell>
        <mxCell id="PUG3nTG2jhj8GArSebX7-60" value="&lt;font style=&quot;font-size: 18px&quot;&gt;DEPARTURE_&lt;br style=&quot;font-size: 18px;&quot;&gt;AIRPORT&lt;/font&gt;" style="rhombus;whiteSpace=wrap;html=1;rounded=0;glass=0;sketch=0;gradientColor=none;fontSize=18;" parent="1" vertex="1">
          <mxGeometry x="703" y="140" width="207" height="140" as="geometry" />
        </mxCell>
        <mxCell id="PUG3nTG2jhj8GArSebX7-61" value="" style="endArrow=none;html=1;fontSize=18;entryX=0;entryY=0.5;entryDx=0;entryDy=0;exitX=1;exitY=0.5;exitDx=0;exitDy=0;" parent="1" source="PUG3nTG2jhj8GArSebX7-1" target="PUG3nTG2jhj8GArSebX7-60" edge="1">
          <mxGeometry width="50" height="50" relative="1" as="geometry">
            <mxPoint x="860" y="730" as="sourcePoint" />
            <mxPoint x="910" y="680" as="targetPoint" />
          </mxGeometry>
        </mxCell>
        <mxCell id="PUG3nTG2jhj8GArSebX7-62" value="1" style="text;html=1;strokeColor=none;fillColor=none;align=center;verticalAlign=middle;whiteSpace=wrap;rounded=0;glass=0;sketch=0;fontSize=18;" parent="1" vertex="1">
          <mxGeometry x="700" y="230" width="40" height="20" as="geometry" />
        </mxCell>
        <mxCell id="PUG3nTG2jhj8GArSebX7-66" value="N" style="text;html=1;strokeColor=none;fillColor=none;align=center;verticalAlign=middle;whiteSpace=wrap;rounded=0;glass=0;sketch=0;fontSize=18;" parent="1" vertex="1">
          <mxGeometry x="900" y="230" width="40" height="20" as="geometry" />
        </mxCell>
        <mxCell id="PUG3nTG2jhj8GArSebX7-67" value="Scheduled_dep_time" style="ellipse;whiteSpace=wrap;html=1;rounded=0;glass=0;sketch=0;gradientColor=none;fontSize=18;" parent="1" vertex="1">
          <mxGeometry x="620" y="320" width="180" height="40" as="geometry" />
        </mxCell>
        <mxCell id="PUG3nTG2jhj8GArSebX7-68" value="" style="endArrow=none;html=1;exitX=0.628;exitY=0;exitDx=0;exitDy=0;entryX=0.5;entryY=1;entryDx=0;entryDy=0;fontSize=18;exitPerimeter=0;" parent="1" source="PUG3nTG2jhj8GArSebX7-67" target="PUG3nTG2jhj8GArSebX7-60" edge="1">
          <mxGeometry width="50" height="50" relative="1" as="geometry">
            <mxPoint x="560" y="360" as="sourcePoint" />
            <mxPoint x="785" y="250" as="targetPoint" />
          </mxGeometry>
        </mxCell>
        <mxCell id="PUG3nTG2jhj8GArSebX7-69" value="ARRIVAL_&lt;br&gt;AIRPORT" style="rhombus;whiteSpace=wrap;html=1;rounded=0;glass=0;sketch=0;gradientColor=none;fontSize=18;" parent="1" vertex="1">
          <mxGeometry x="710" y="420" width="207" height="140" as="geometry" />
        </mxCell>
        <mxCell id="PUG3nTG2jhj8GArSebX7-73" value="" style="shape=link;html=1;rounded=0;fontSize=18;entryX=0.986;entryY=0.507;entryDx=0;entryDy=0;entryPerimeter=0;exitX=0;exitY=0.25;exitDx=0;exitDy=0;" parent="1" source="PUG3nTG2jhj8GArSebX7-6" target="PUG3nTG2jhj8GArSebX7-60" edge="1">
          <mxGeometry relative="1" as="geometry">
            <mxPoint x="887" y="260" as="sourcePoint" />
            <mxPoint x="920" y="210" as="targetPoint" />
          </mxGeometry>
        </mxCell>
        <mxCell id="PUG3nTG2jhj8GArSebX7-75" value="" style="shape=link;html=1;rounded=0;fontSize=18;entryX=0.992;entryY=0.48;entryDx=0;entryDy=0;exitX=0.25;exitY=1;exitDx=0;exitDy=0;entryPerimeter=0;" parent="1" source="PUG3nTG2jhj8GArSebX7-6" target="PUG3nTG2jhj8GArSebX7-69" edge="1">
          <mxGeometry relative="1" as="geometry">
            <mxPoint x="1070" y="300" as="sourcePoint" />
            <mxPoint x="934.1019999999999" y="220.98000000000002" as="targetPoint" />
          </mxGeometry>
        </mxCell>
        <mxCell id="PUG3nTG2jhj8GArSebX7-76" value="Scheduled_arr_time" style="ellipse;whiteSpace=wrap;html=1;rounded=0;glass=0;sketch=0;gradientColor=none;fontSize=18;" parent="1" vertex="1">
          <mxGeometry x="830" y="320" width="180" height="40" as="geometry" />
        </mxCell>
        <mxCell id="PUG3nTG2jhj8GArSebX7-77" value="" style="endArrow=none;html=1;exitX=0.5;exitY=1;exitDx=0;exitDy=0;entryX=0.5;entryY=0;entryDx=0;entryDy=0;fontSize=18;" parent="1" source="PUG3nTG2jhj8GArSebX7-76" target="PUG3nTG2jhj8GArSebX7-69" edge="1">
          <mxGeometry width="50" height="50" relative="1" as="geometry">
            <mxPoint x="743.04" y="300" as="sourcePoint" />
            <mxPoint x="781.75" y="255" as="targetPoint" />
          </mxGeometry>
        </mxCell>
        <mxCell id="PUG3nTG2jhj8GArSebX7-79" value="" style="endArrow=none;html=1;fontSize=18;entryX=0;entryY=0.5;entryDx=0;entryDy=0;exitX=1;exitY=0.5;exitDx=0;exitDy=0;" parent="1" source="PUG3nTG2jhj8GArSebX7-1" target="PUG3nTG2jhj8GArSebX7-69" edge="1">
          <mxGeometry width="50" height="50" relative="1" as="geometry">
            <mxPoint x="470" y="380" as="sourcePoint" />
            <mxPoint x="713" y="220" as="targetPoint" />
          </mxGeometry>
        </mxCell>
        <mxCell id="PUG3nTG2jhj8GArSebX7-81" value="INSTANCE_OF" style="shape=rhombus;double=1;perimeter=rhombusPerimeter;whiteSpace=wrap;html=1;align=center;rounded=0;glass=0;sketch=0;gradientColor=none;fontSize=18;" parent="1" vertex="1">
          <mxGeometry x="710" y="565" width="240" height="130" as="geometry" />
        </mxCell>
        <mxCell id="PUG3nTG2jhj8GArSebX7-83" value="" style="endArrow=none;html=1;fontSize=18;entryX=0.5;entryY=1;entryDx=0;entryDy=0;exitX=0.5;exitY=0;exitDx=0;exitDy=0;" parent="1" source="PUG3nTG2jhj8GArSebX7-81" target="PUG3nTG2jhj8GArSebX7-6" edge="1">
          <mxGeometry width="50" height="50" relative="1" as="geometry">
            <mxPoint x="470" y="380" as="sourcePoint" />
            <mxPoint x="719.9999999999995" y="509.9999999999998" as="targetPoint" />
          </mxGeometry>
        </mxCell>
        <mxCell id="PUG3nTG2jhj8GArSebX7-84" value="" style="endArrow=classic;html=1;fontSize=18;" parent="1" edge="1">
          <mxGeometry width="50" height="50" relative="1" as="geometry">
            <mxPoint x="1060" y="430" as="sourcePoint" />
            <mxPoint x="1010" y="460" as="targetPoint" />
          </mxGeometry>
        </mxCell>
        <mxCell id="PUG3nTG2jhj8GArSebX7-86" value="Instance" style="text;html=1;align=center;verticalAlign=middle;resizable=0;points=[];autosize=1;fontSize=18;" parent="1" vertex="1">
          <mxGeometry x="970" y="465" width="80" height="30" as="geometry" />
        </mxCell>
        <mxCell id="PUG3nTG2jhj8GArSebX7-88" value="LEGS" style="shape=rhombus;double=1;perimeter=rhombusPerimeter;whiteSpace=wrap;html=1;align=center;rounded=0;glass=0;sketch=0;gradientColor=none;fontSize=18;" parent="1" vertex="1">
          <mxGeometry x="1050" y="410" width="180" height="100" as="geometry" />
        </mxCell>
        <mxCell id="PUG3nTG2jhj8GArSebX7-89" value="" style="shape=link;html=1;rounded=0;fontSize=18;entryX=0.5;entryY=1;entryDx=0;entryDy=0;exitX=0.5;exitY=0;exitDx=0;exitDy=0;" parent="1" source="PUG3nTG2jhj8GArSebX7-88" target="PUG3nTG2jhj8GArSebX7-6" edge="1">
          <mxGeometry relative="1" as="geometry">
            <mxPoint x="520" y="600" as="sourcePoint" />
            <mxPoint x="680" y="600" as="targetPoint" />
          </mxGeometry>
        </mxCell>
        <mxCell id="PUG3nTG2jhj8GArSebX7-90" value="N" style="resizable=0;html=1;align=right;verticalAlign=bottom;fontSize=18;" parent="PUG3nTG2jhj8GArSebX7-89" connectable="0" vertex="1">
          <mxGeometry x="1" relative="1" as="geometry">
            <mxPoint x="-10" y="50" as="offset" />
          </mxGeometry>
        </mxCell>
        <mxCell id="PUG3nTG2jhj8GArSebX7-91" value="" style="endArrow=none;html=1;rounded=0;fontSize=18;entryX=0.5;entryY=1;entryDx=0;entryDy=0;exitX=0.5;exitY=0;exitDx=0;exitDy=0;" parent="1" source="PUG3nTG2jhj8GArSebX7-9" target="PUG3nTG2jhj8GArSebX7-88" edge="1">
          <mxGeometry relative="1" as="geometry">
            <mxPoint x="530" y="480" as="sourcePoint" />
            <mxPoint x="690" y="480" as="targetPoint" />
          </mxGeometry>
        </mxCell>
        <mxCell id="PUG3nTG2jhj8GArSebX7-92" value="1" style="resizable=0;html=1;align=right;verticalAlign=bottom;fontSize=18;" parent="PUG3nTG2jhj8GArSebX7-91" connectable="0" vertex="1">
          <mxGeometry x="1" relative="1" as="geometry">
            <mxPoint x="-10" y="20" as="offset" />
          </mxGeometry>
        </mxCell>
        <mxCell id="PUG3nTG2jhj8GArSebX7-93" value="FARES" style="shape=rhombus;double=1;perimeter=rhombusPerimeter;whiteSpace=wrap;html=1;align=center;rounded=0;glass=0;sketch=0;gradientColor=none;fontSize=18;" parent="1" vertex="1">
          <mxGeometry x="1050" y="705" width="180" height="100" as="geometry" />
        </mxCell>
        <mxCell id="PUG3nTG2jhj8GArSebX7-94" value="1" style="text;html=1;strokeColor=none;fillColor=none;align=center;verticalAlign=middle;whiteSpace=wrap;rounded=0;glass=0;sketch=0;fontSize=18;" parent="1" vertex="1">
          <mxGeometry x="690" y="445" width="40" height="20" as="geometry" />
        </mxCell>
        <mxCell id="PUG3nTG2jhj8GArSebX7-95" value="N" style="text;html=1;strokeColor=none;fillColor=none;align=center;verticalAlign=middle;whiteSpace=wrap;rounded=0;glass=0;sketch=0;fontSize=18;" parent="1" vertex="1">
          <mxGeometry x="900" y="445" width="40" height="20" as="geometry" />
        </mxCell>
        <mxCell id="PUG3nTG2jhj8GArSebX7-96" value="" style="endArrow=none;html=1;rounded=0;fontSize=18;entryX=0.5;entryY=1;entryDx=0;entryDy=0;exitX=0.5;exitY=0;exitDx=0;exitDy=0;" parent="1" source="PUG3nTG2jhj8GArSebX7-93" target="PUG3nTG2jhj8GArSebX7-9" edge="1">
          <mxGeometry relative="1" as="geometry">
            <mxPoint x="1149.9999999999995" y="589.9999999999998" as="sourcePoint" />
            <mxPoint x="1149.9999999999995" y="519.9999999999998" as="targetPoint" />
          </mxGeometry>
        </mxCell>
        <mxCell id="PUG3nTG2jhj8GArSebX7-97" value="1" style="resizable=0;html=1;align=right;verticalAlign=bottom;fontSize=18;" parent="PUG3nTG2jhj8GArSebX7-96" connectable="0" vertex="1">
          <mxGeometry x="1" relative="1" as="geometry">
            <mxPoint x="-10" y="44.71" as="offset" />
          </mxGeometry>
        </mxCell>
        <mxCell id="PUG3nTG2jhj8GArSebX7-98" value="" style="shape=link;html=1;rounded=0;fontSize=18;entryX=0.5;entryY=0;entryDx=0;entryDy=0;exitX=0.5;exitY=1;exitDx=0;exitDy=0;" parent="1" source="PUG3nTG2jhj8GArSebX7-93" target="PUG3nTG2jhj8GArSebX7-11" edge="1">
          <mxGeometry relative="1" as="geometry">
            <mxPoint x="1190" y="690" as="sourcePoint" />
            <mxPoint x="1149.9999999999995" y="370" as="targetPoint" />
          </mxGeometry>
        </mxCell>
        <mxCell id="PUG3nTG2jhj8GArSebX7-99" value="N" style="resizable=0;html=1;align=right;verticalAlign=bottom;fontSize=18;" parent="PUG3nTG2jhj8GArSebX7-98" connectable="0" vertex="1">
          <mxGeometry x="1" relative="1" as="geometry">
            <mxPoint x="-10" y="-40" as="offset" />
          </mxGeometry>
        </mxCell>
        <mxCell id="PUG3nTG2jhj8GArSebX7-100" value="CAN_LAND" style="rhombus;whiteSpace=wrap;html=1;rounded=0;glass=0;sketch=0;gradientColor=none;fontSize=18;" parent="1" vertex="1">
          <mxGeometry x="298.25" y="435" width="163.5" height="95" as="geometry" />
        </mxCell>
        <mxCell id="PUG3nTG2jhj8GArSebX7-101" value="" style="endArrow=none;html=1;entryX=0.5;entryY=0;entryDx=0;entryDy=0;fontSize=18;exitX=0.5;exitY=1;exitDx=0;exitDy=0;" parent="1" source="PUG3nTG2jhj8GArSebX7-1" target="PUG3nTG2jhj8GArSebX7-100" edge="1">
          <mxGeometry width="50" height="50" relative="1" as="geometry">
            <mxPoint x="390" y="340" as="sourcePoint" />
            <mxPoint x="400" y="230" as="targetPoint" />
          </mxGeometry>
        </mxCell>
        <mxCell id="PUG3nTG2jhj8GArSebX7-102" value="" style="endArrow=none;html=1;entryX=0.5;entryY=1;entryDx=0;entryDy=0;fontSize=18;exitX=0.5;exitY=0;exitDx=0;exitDy=0;" parent="1" source="PUG3nTG2jhj8GArSebX7-7" target="PUG3nTG2jhj8GArSebX7-100" edge="1">
          <mxGeometry width="50" height="50" relative="1" as="geometry">
            <mxPoint x="390" y="420.0000000000002" as="sourcePoint" />
            <mxPoint x="390" y="444.9999999999998" as="targetPoint" />
          </mxGeometry>
        </mxCell>
        <mxCell id="PUG3nTG2jhj8GArSebX7-103" value="N&lt;br&gt;" style="text;html=1;align=center;verticalAlign=middle;resizable=0;points=[];autosize=1;fontSize=18;" parent="1" vertex="1">
          <mxGeometry x="380" y="525" width="30" height="30" as="geometry" />
        </mxCell>
        <mxCell id="PUG3nTG2jhj8GArSebX7-104" value="M" style="text;html=1;align=center;verticalAlign=middle;resizable=0;points=[];autosize=1;fontSize=18;" parent="1" vertex="1">
          <mxGeometry x="385" y="415" width="30" height="30" as="geometry" />
        </mxCell>
        <mxCell id="PUG3nTG2jhj8GArSebX7-105" value="TYPE" style="rhombus;whiteSpace=wrap;html=1;rounded=0;glass=0;sketch=0;gradientColor=none;fontSize=18;" parent="1" vertex="1">
          <mxGeometry x="298.25" y="765" width="163.5" height="95" as="geometry" />
        </mxCell>
        <mxCell id="PUG3nTG2jhj8GArSebX7-106" value="" style="endArrow=none;html=1;entryX=0.5;entryY=0;entryDx=0;entryDy=0;fontSize=18;exitX=0.5;exitY=1;exitDx=0;exitDy=0;" parent="1" source="PUG3nTG2jhj8GArSebX7-7" target="PUG3nTG2jhj8GArSebX7-105" edge="1">
          <mxGeometry width="50" height="50" relative="1" as="geometry">
            <mxPoint x="390" y="599.9999999999998" as="sourcePoint" />
            <mxPoint x="390" y="539.9999999999998" as="targetPoint" />
          </mxGeometry>
        </mxCell>
        <mxCell id="PUG3nTG2jhj8GArSebX7-107" value="" style="shape=link;html=1;rounded=0;fontSize=18;entryX=0.5;entryY=0;entryDx=0;entryDy=0;exitX=0.5;exitY=1;exitDx=0;exitDy=0;" parent="1" source="PUG3nTG2jhj8GArSebX7-105" target="PUG3nTG2jhj8GArSebX7-8" edge="1">
          <mxGeometry relative="1" as="geometry">
            <mxPoint x="1149.9999999999995" y="814.9999999999998" as="sourcePoint" />
            <mxPoint x="1149.9999999999995" y="869.9999999999998" as="targetPoint" />
          </mxGeometry>
        </mxCell>
        <mxCell id="PUG3nTG2jhj8GArSebX7-109" value="1" style="text;html=1;align=center;verticalAlign=middle;resizable=0;points=[];autosize=1;fontSize=18;" parent="1" vertex="1">
          <mxGeometry x="385" y="745" width="30" height="30" as="geometry" />
        </mxCell>
        <mxCell id="PUG3nTG2jhj8GArSebX7-110" value="N" style="text;html=1;align=center;verticalAlign=middle;resizable=0;points=[];autosize=1;fontSize=18;" parent="1" vertex="1">
          <mxGeometry x="385" y="845" width="30" height="30" as="geometry" />
        </mxCell>
        <mxCell id="PUG3nTG2jhj8GArSebX7-111" value="ASSIGNED" style="rhombus;whiteSpace=wrap;html=1;rounded=0;glass=0;sketch=0;gradientColor=none;fontSize=18;" parent="1" vertex="1">
          <mxGeometry x="526.5" y="942.5" width="163.5" height="95" as="geometry" />
        </mxCell>
        <mxCell id="PUG3nTG2jhj8GArSebX7-112" value="" style="endArrow=none;html=1;entryX=1;entryY=0.5;entryDx=0;entryDy=0;fontSize=18;exitX=0;exitY=0.5;exitDx=0;exitDy=0;" parent="1" source="PUG3nTG2jhj8GArSebX7-111" target="PUG3nTG2jhj8GArSebX7-8" edge="1">
          <mxGeometry width="50" height="50" relative="1" as="geometry">
            <mxPoint x="390" y="679.9999999999998" as="sourcePoint" />
            <mxPoint x="390" y="774.9999999999998" as="targetPoint" />
          </mxGeometry>
        </mxCell>
        <mxCell id="PUG3nTG2jhj8GArSebX7-113" value="1" style="text;html=1;align=center;verticalAlign=middle;resizable=0;points=[];autosize=1;fontSize=18;" parent="1" vertex="1">
          <mxGeometry x="515" y="955" width="30" height="30" as="geometry" />
        </mxCell>
        <mxCell id="PUG3nTG2jhj8GArSebX7-114" value="" style="shape=link;html=1;rounded=0;fontSize=18;entryX=1;entryY=0.5;entryDx=0;entryDy=0;exitX=0;exitY=0.5;exitDx=0;exitDy=0;" parent="1" source="PUG3nTG2jhj8GArSebX7-12" target="PUG3nTG2jhj8GArSebX7-111" edge="1">
          <mxGeometry relative="1" as="geometry">
            <mxPoint x="390" y="869.9999999999998" as="sourcePoint" />
            <mxPoint x="390" y="959.9999999999998" as="targetPoint" />
          </mxGeometry>
        </mxCell>
        <mxCell id="PUG3nTG2jhj8GArSebX7-115" value="N" style="text;html=1;align=center;verticalAlign=middle;resizable=0;points=[];autosize=1;fontSize=18;" parent="1" vertex="1">
          <mxGeometry x="675" y="955" width="30" height="30" as="geometry" />
        </mxCell>
        <mxCell id="PUG3nTG2jhj8GArSebX7-116" value="RESERVATION" style="shape=rhombus;double=1;perimeter=rhombusPerimeter;whiteSpace=wrap;html=1;align=center;rounded=0;glass=0;sketch=0;gradientColor=none;fontSize=18;" parent="1" vertex="1">
          <mxGeometry x="518.25" y="1090" width="180" height="110" as="geometry" />
        </mxCell>
        <mxCell id="PUG3nTG2jhj8GArSebX7-118" value="" style="shape=link;html=1;rounded=0;fontSize=18;entryX=0;entryY=0.5;entryDx=0;entryDy=0;exitX=1;exitY=0;exitDx=0;exitDy=0;" parent="1" source="PUG3nTG2jhj8GArSebX7-10" target="PUG3nTG2jhj8GArSebX7-116" edge="1">
          <mxGeometry relative="1" as="geometry">
            <mxPoint x="879.9999999999995" y="1040" as="sourcePoint" />
            <mxPoint x="708.25" y="1155" as="targetPoint" />
          </mxGeometry>
        </mxCell>
        <mxCell id="PUG3nTG2jhj8GArSebX7-124" value="N" style="edgeLabel;html=1;align=center;verticalAlign=middle;resizable=0;points=[];fontSize=18;" parent="PUG3nTG2jhj8GArSebX7-118" vertex="1" connectable="0">
          <mxGeometry x="0.6637" y="-5" relative="1" as="geometry">
            <mxPoint x="7.27" y="14.8" as="offset" />
          </mxGeometry>
        </mxCell>
        <mxCell id="PUG3nTG2jhj8GArSebX7-119" value="Cphone" style="ellipse;whiteSpace=wrap;html=1;rounded=0;glass=0;sketch=0;gradientColor=none;fontSize=18;" parent="1" vertex="1">
          <mxGeometry x="642.5" y="1050" width="95" height="40" as="geometry" />
        </mxCell>
        <mxCell id="PUG3nTG2jhj8GArSebX7-120" value="Customer_name" style="ellipse;whiteSpace=wrap;html=1;rounded=0;glass=0;sketch=0;gradientColor=none;fontSize=18;" parent="1" vertex="1">
          <mxGeometry x="447.5" y="1050" width="162.5" height="40" as="geometry" />
        </mxCell>
        <mxCell id="PUG3nTG2jhj8GArSebX7-121" value="" style="endArrow=none;html=1;entryX=0.5;entryY=1;entryDx=0;entryDy=0;fontSize=18;exitX=0;exitY=0;exitDx=0;exitDy=0;" parent="1" source="PUG3nTG2jhj8GArSebX7-116" target="PUG3nTG2jhj8GArSebX7-120" edge="1">
          <mxGeometry width="50" height="50" relative="1" as="geometry">
            <mxPoint x="536.5" y="1000" as="sourcePoint" />
            <mxPoint x="470" y="1000" as="targetPoint" />
          </mxGeometry>
        </mxCell>
        <mxCell id="PUG3nTG2jhj8GArSebX7-122" value="" style="endArrow=none;html=1;entryX=1;entryY=0;entryDx=0;entryDy=0;fontSize=18;exitX=0.5;exitY=1;exitDx=0;exitDy=0;" parent="1" source="PUG3nTG2jhj8GArSebX7-119" target="PUG3nTG2jhj8GArSebX7-116" edge="1">
          <mxGeometry width="50" height="50" relative="1" as="geometry">
            <mxPoint x="546.5" y="1010" as="sourcePoint" />
            <mxPoint x="480" y="1010" as="targetPoint" />
          </mxGeometry>
        </mxCell>
        <mxCell id="PUG3nTG2jhj8GArSebX7-123" value="1" style="text;html=1;align=center;verticalAlign=middle;resizable=0;points=[];autosize=1;fontSize=18;" parent="1" vertex="1">
          <mxGeometry x="690" y="1150" width="30" height="30" as="geometry" />
        </mxCell>
        <mxCell id="PUG3nTG2jhj8GArSebX7-125" value="DEPARTS" style="rhombus;whiteSpace=wrap;html=1;rounded=0;glass=0;sketch=0;gradientColor=none;fontSize=18;" parent="1" vertex="1">
          <mxGeometry x="490" y="660" width="150" height="80" as="geometry" />
        </mxCell>
        <mxCell id="PUG3nTG2jhj8GArSebX7-126" value="ARRIVES" style="rhombus;whiteSpace=wrap;html=1;rounded=0;glass=0;sketch=0;gradientColor=none;fontSize=18;" parent="1" vertex="1">
          <mxGeometry x="615" y="720" width="150" height="80" as="geometry" />
        </mxCell>
        <mxCell id="PUG3nTG2jhj8GArSebX7-127" value="" style="endArrow=none;html=1;fontSize=18;entryX=0.5;entryY=0;entryDx=0;entryDy=0;exitX=1;exitY=1;exitDx=0;exitDy=0;" parent="1" source="PUG3nTG2jhj8GArSebX7-1" target="PUG3nTG2jhj8GArSebX7-125" edge="1">
          <mxGeometry width="50" height="50" relative="1" as="geometry">
            <mxPoint x="470" y="380" as="sourcePoint" />
            <mxPoint x="720" y="490" as="targetPoint" />
          </mxGeometry>
        </mxCell>
        <mxCell id="PUG3nTG2jhj8GArSebX7-128" value="" style="endArrow=none;html=1;fontSize=18;entryX=0.5;entryY=0;entryDx=0;entryDy=0;exitX=1;exitY=1;exitDx=0;exitDy=0;" parent="1" source="PUG3nTG2jhj8GArSebX7-1" target="PUG3nTG2jhj8GArSebX7-126" edge="1">
          <mxGeometry width="50" height="50" relative="1" as="geometry">
            <mxPoint x="480" y="390" as="sourcePoint" />
            <mxPoint x="730" y="500" as="targetPoint" />
          </mxGeometry>
        </mxCell>
        <mxCell id="PUG3nTG2jhj8GArSebX7-129" value="" style="endArrow=none;html=1;fontSize=18;entryX=0.5;entryY=1;entryDx=0;entryDy=0;exitX=0.25;exitY=0;exitDx=0;exitDy=0;" parent="1" source="PUG3nTG2jhj8GArSebX7-12" target="PUG3nTG2jhj8GArSebX7-126" edge="1">
          <mxGeometry width="50" height="50" relative="1" as="geometry">
            <mxPoint x="470" y="420" as="sourcePoint" />
            <mxPoint x="725" y="725" as="targetPoint" />
          </mxGeometry>
        </mxCell>
        <mxCell id="PUG3nTG2jhj8GArSebX7-130" value="" style="endArrow=none;html=1;fontSize=18;entryX=0.5;entryY=1;entryDx=0;entryDy=0;exitX=0.25;exitY=0;exitDx=0;exitDy=0;" parent="1" source="PUG3nTG2jhj8GArSebX7-12" target="PUG3nTG2jhj8GArSebX7-125" edge="1">
          <mxGeometry width="50" height="50" relative="1" as="geometry">
            <mxPoint x="480" y="430" as="sourcePoint" />
            <mxPoint x="735" y="735" as="targetPoint" />
          </mxGeometry>
        </mxCell>
        <mxCell id="PUG3nTG2jhj8GArSebX7-131" value="Dep_time" style="ellipse;whiteSpace=wrap;html=1;rounded=0;glass=0;sketch=0;gradientColor=none;fontSize=18;" parent="1" vertex="1">
          <mxGeometry x="460" y="755" width="115" height="40" as="geometry" />
        </mxCell>
        <mxCell id="PUG3nTG2jhj8GArSebX7-132" value="Arr_time" style="ellipse;whiteSpace=wrap;html=1;rounded=0;glass=0;sketch=0;gradientColor=none;fontSize=18;" parent="1" vertex="1">
          <mxGeometry x="705" y="690" width="115" height="40" as="geometry" />
        </mxCell>
        <mxCell id="PUG3nTG2jhj8GArSebX7-133" value="" style="shape=link;html=1;rounded=0;fontSize=18;entryX=0.5;entryY=0;entryDx=0;entryDy=0;exitX=0.5;exitY=1;exitDx=0;exitDy=0;" parent="1" source="PUG3nTG2jhj8GArSebX7-81" target="PUG3nTG2jhj8GArSebX7-12" edge="1">
          <mxGeometry relative="1" as="geometry">
            <mxPoint x="879.9999999999995" y="1040" as="sourcePoint" />
            <mxPoint x="708.25" y="1155" as="targetPoint" />
          </mxGeometry>
        </mxCell>
        <mxCell id="PUG3nTG2jhj8GArSebX7-134" value="" style="endArrow=none;html=1;fontSize=18;entryX=0.337;entryY=0.83;entryDx=0;entryDy=0;exitX=0.5;exitY=0;exitDx=0;exitDy=0;entryPerimeter=0;" parent="1" source="PUG3nTG2jhj8GArSebX7-131" target="PUG3nTG2jhj8GArSebX7-125" edge="1">
          <mxGeometry width="50" height="50" relative="1" as="geometry">
            <mxPoint x="800" y="960.0000000000002" as="sourcePoint" />
            <mxPoint x="575" y="750" as="targetPoint" />
          </mxGeometry>
        </mxCell>
        <mxCell id="PUG3nTG2jhj8GArSebX7-135" value="" style="endArrow=none;html=1;fontSize=18;entryX=0.306;entryY=0.974;entryDx=0;entryDy=0;exitX=1;exitY=0;exitDx=0;exitDy=0;entryPerimeter=0;" parent="1" source="PUG3nTG2jhj8GArSebX7-126" target="PUG3nTG2jhj8GArSebX7-132" edge="1">
          <mxGeometry width="50" height="50" relative="1" as="geometry">
            <mxPoint x="527.5" y="764.9999999999998" as="sourcePoint" />
            <mxPoint x="550.5500000000002" y="736.3999999999999" as="targetPoint" />
          </mxGeometry>
        </mxCell>
        <mxCell id="PUG3nTG2jhj8GArSebX7-136" value="1" style="text;html=1;align=center;verticalAlign=middle;resizable=0;points=[];autosize=1;fontSize=18;" parent="1" vertex="1">
          <mxGeometry x="525" y="635" width="30" height="30" as="geometry" />
        </mxCell>
        <mxCell id="PUG3nTG2jhj8GArSebX7-137" value="N" style="text;html=1;align=center;verticalAlign=middle;resizable=0;points=[];autosize=1;fontSize=18;" parent="1" vertex="1">
          <mxGeometry x="575" y="725" width="30" height="30" as="geometry" />
        </mxCell>
        <mxCell id="PUG3nTG2jhj8GArSebX7-138" value="1" style="text;html=1;align=center;verticalAlign=middle;resizable=0;points=[];autosize=1;fontSize=18;" parent="1" vertex="1">
          <mxGeometry x="650" y="695" width="30" height="30" as="geometry" />
        </mxCell>
        <mxCell id="PUG3nTG2jhj8GArSebX7-139" value="N" style="text;html=1;align=center;verticalAlign=middle;resizable=0;points=[];autosize=1;fontSize=18;" parent="1" vertex="1">
          <mxGeometry x="705" y="795" width="30" height="30" as="geometry" />
        </mxCell>
        <mxCell id="PUG3nTG2jhj8GArSebX7-140" value="N" style="text;html=1;align=center;verticalAlign=middle;resizable=0;points=[];autosize=1;fontSize=18;" parent="1" vertex="1">
          <mxGeometry x="840" y="685" width="30" height="30" as="geometry" />
        </mxCell>
        <mxCell id="PUG3nTG2jhj8GArSebX7-142" value="1" style="text;html=1;align=center;verticalAlign=middle;resizable=0;points=[];autosize=1;fontSize=18;" parent="1" vertex="1">
          <mxGeometry x="845" y="545" width="30" height="30" as="geometry" />
        </mxCell>
        <mxCell id="PUG3nTG2jhj8GArSebX7-143" value="" style="endArrow=none;html=1;entryX=1;entryY=0.5;entryDx=0;entryDy=0;fontSize=18;exitX=0.75;exitY=1;exitDx=0;exitDy=0;" parent="1" source="PUG3nTG2jhj8GArSebX7-12" target="PUG3nTG2jhj8GArSebX7-116" edge="1">
          <mxGeometry width="50" height="50" relative="1" as="geometry">
            <mxPoint x="536.5" y="1000.0000000000002" as="sourcePoint" />
            <mxPoint x="470" y="1000.0000000000002" as="targetPoint" />
          </mxGeometry>
        </mxCell>
        <mxCell id="kzUC_8cfjs7gQeeQj0eT-1" value="FLIGHT_LEG" style="shape=ext;double=1;rounded=0;whiteSpace=wrap;html=1;glass=0;sketch=0;gradientColor=none;margin=10;fontSize=18;" vertex="1" parent="1">
          <mxGeometry x="1060" y="280" width="160" height="80" as="geometry" />
        </mxCell>
      </root>
    </mxGraphModel>
  </diagram>
</mxfile>
